<svg width="24" height="24" viewBox="0 0 24 24" fill="none" xmlns="http://www.w3.org/2000/svg">
<path d="M23.6278 14.5615L23.6313 14.5603L19.8004 6.20155L20.7294 5.73916L20.3818 5.04305L19.476 5.49416L19.3535 5.22699C19.264 5.03177 19.0332 4.94607 18.838 5.03556C18.7533 5.0744 18.6854 5.14231 18.6465 5.22699L18.5373 5.46577C17.8781 5.15962 17.1602 5.00075 16.4334 5.00027H13.1667V4.22249H13.9445V3.44471H13.276L13.5556 2.32588C13.7703 1.46678 13.2479 0.596297 12.3888 0.381582C11.5297 0.166915 10.6592 0.68929 10.4445 1.54839C10.3807 1.8036 10.3807 2.07062 10.4445 2.32583L10.7241 3.44466H10.0556V4.22244H10.8334V5.00022H7.56866C6.84114 5.0008 6.12248 5.16005 5.46282 5.46689L5.35355 5.22811C5.26405 5.03289 5.0332 4.94718 4.83798 5.03668C4.75329 5.07552 4.68539 5.14343 4.64655 5.22811L4.52404 5.49527L3.61832 5.04222L3.27066 5.73911L4.19971 6.20344L0.368768 14.5603C0.345143 14.6111 0.333088 14.6665 0.333379 14.7225C0.335081 16.2252 1.55289 17.443 3.0556 17.4447H6.94449C8.4472 17.443 9.66501 16.2252 9.66671 14.7225C9.66574 14.6666 9.65247 14.6117 9.62782 14.5615L5.78638 6.17121C6.34477 5.91202 6.95304 5.77785 7.56866 5.77805H10.8334V20.0059L9.50571 21.3336H8.11116C7.03782 21.3349 6.16798 22.2047 6.16671 23.278C6.16671 23.4928 6.34084 23.6669 6.5556 23.6669H17.4445C17.6593 23.6669 17.8334 23.4928 17.8334 23.278C17.8321 22.2047 16.9623 21.3349 15.8889 21.3336H14.4944L13.1667 20.0059V5.77805H16.4334C17.049 5.77785 17.6573 5.91202 18.2157 6.17121L14.3688 14.5603C14.3451 14.6111 14.3331 14.6665 14.3334 14.7225C14.3351 16.2252 15.5529 17.443 17.0556 17.4447H20.9445C22.4472 17.443 23.665 16.2252 23.6667 14.7225C23.6658 14.6666 23.6525 14.6117 23.6278 14.5615ZM6.94449 16.6669H3.0556C2.13189 16.6659 1.33598 16.0162 1.15005 15.1114H8.85004C8.66416 16.0162 7.8682 16.6659 6.94449 16.6669ZM8.67193 14.3336H1.32816L4.90049 6.53988C4.96573 6.55738 5.03436 6.55738 5.0996 6.53988L8.67193 14.3336ZM11.3494 1.42871C11.6523 1.06938 12.1891 1.02364 12.5484 1.32648C12.5853 1.3576 12.6195 1.39182 12.6507 1.42871C12.808 1.6288 12.8635 1.89052 12.8012 2.13727L12.4741 3.44471H11.526L11.1989 2.13727C11.1366 1.89052 11.1922 1.6288 11.3494 1.42871ZM11.6112 5.00027V4.22249H12.3889V5.00027H11.6112ZM12.3889 5.77805V19.778H11.6112V5.77805H12.3889ZM15.8889 22.1114C16.3832 22.112 16.8237 22.4234 16.9891 22.8892H7.01099C7.17641 22.4234 7.61688 22.112 8.11116 22.1114H15.8889ZM13.3946 21.3336H10.6055L11.3833 20.5558H12.6168L13.3946 21.3336ZM18.8997 6.54105C18.9639 6.56365 19.0344 6.56073 19.0965 6.53288L22.6719 14.3336H15.3282L18.8997 6.54105ZM20.9445 16.6669H17.0556C16.1319 16.6659 15.336 16.0162 15.15 15.1114H22.85C22.6642 16.0162 21.8682 16.6659 20.9445 16.6669Z" fill="#2D2D2D"/>
</svg>
