<svg width="44" height="44" viewBox="0 0 44 44" fill="none" xmlns="http://www.w3.org/2000/svg">
<path d="M19.283 15.5672C19.1165 15.4632 18.9251 15.4056 18.7288 15.4004C18.5326 15.3952 18.3385 15.4427 18.1667 15.5379C17.995 15.6331 17.8519 15.7725 17.7522 15.9417C17.6525 16.1109 17.6 16.3037 17.6 16.5V27.83C17.5999 28.0288 17.6538 28.2239 17.7558 28.3946C17.8578 28.5652 18.0042 28.705 18.1793 28.7992C18.3544 28.8933 18.5518 28.9382 18.7504 28.929C18.949 28.9199 19.1414 28.8572 19.3072 28.7474L28.1072 22.9196C28.2604 22.8181 28.3857 22.6798 28.4717 22.5173C28.5577 22.3548 28.6016 22.1734 28.5994 21.9896C28.5972 21.8058 28.549 21.6255 28.4592 21.4652C28.3693 21.3048 28.2408 21.1695 28.0852 21.0716L19.2852 15.5672H19.283Z" fill="#A4A4A4"/>
<path d="M9.90002 6.59998C8.44133 6.59998 7.04239 7.17944 6.01094 8.21089C4.97949 9.24234 4.40002 10.6413 4.40002 12.1V31.9C4.40002 33.3587 4.97949 34.7576 6.01094 35.7891C7.04239 36.8205 8.44133 37.4 9.90002 37.4H34.1C35.5587 37.4 36.9577 36.8205 37.9891 35.7891C39.0206 34.7576 39.6 33.3587 39.6 31.9V12.1C39.6 10.6413 39.0206 9.24234 37.9891 8.21089C36.9577 7.17944 35.5587 6.59998 34.1 6.59998H9.90002ZM6.60002 12.1C6.60002 11.2248 6.9477 10.3854 7.56657 9.76652C8.18544 9.14765 9.02481 8.79998 9.90002 8.79998H34.1C34.9752 8.79998 35.8146 9.14765 36.4335 9.76652C37.0523 10.3854 37.4 11.2248 37.4 12.1V31.9C37.4 32.7752 37.0523 33.6146 36.4335 34.2334C35.8146 34.8523 34.9752 35.2 34.1 35.2H9.90002C9.02481 35.2 8.18544 34.8523 7.56657 34.2334C6.9477 33.6146 6.60002 32.7752 6.60002 31.9V12.1Z" fill="#A4A4A4"/>
</svg>
